<svg id="Button_b1__erRn7" class="Button_blue__1fT-O Button_svg__l1+vF Button_hide__Puy9O" width="423" height="192" viewBox="0 0 423 192" fill="none" xmlns="http://www.w3.org/2000/svg"><path d="M41.191 29.4644C47.5407 29.4644 52.5664 28.7877 58.1627 31.5859C63.1919 34.1004 68.4215 35.4424 73.4373 37.9503C80.8324 41.6478 86.6058 37.4437 93.7563 34.2259C98.7015 32.0006 100.245 26.9772 104.835 24.5615C111.443 21.0834 119.491 19.2814 126.851 19.2814C131.887 19.2814 138.738 21.9232 143.682 23.3357C147.967 24.5602 154.235 26.5541 156.599 30.6901C159.147 35.149 170.836 24.5622 171.873 23.5243C177.296 18.1014 176.957 14.2557 184.649 13.2941C187.738 12.908 189.277 11.5434 190.542 15.4156C192.102 20.1875 191.014 25.2276 191.391 30.1244C191.738 34.636 211.589 24.1968 213.407 21.3557C216.55 16.4444 215.555 1.01201 223.637 1.46102C226.917 1.64322 231.354 5.37644 233.396 7.87257C235.197 10.0741 234.169 12.1524 234.716 14.6141C235.031 16.0304 237.276 17.1098 238.252 17.9613C242.444 21.6211 246.517 25.7797 249.755 30.313C252.033 33.5028 254.129 36.9861 255.884 40.4961C256.21 41.1485 256.434 43.2688 256.921 43.7018C258.545 45.1459 273.158 34.6338 274.93 32.0573C278.42 26.9808 277.323 24.3729 283.887 24.3729C288.331 24.3729 287.805 16.9608 294.447 18.6213C300.128 20.0416 304.956 24.6156 308.496 29.0401C309.515 30.3141 311.543 30.7474 312.739 32.0102C313.541 32.8571 314.179 34.7737 315.285 35.216C317.248 36.0011 321.575 31.3392 322.734 30.313C330.366 23.5501 336.088 15.7628 345.08 11.2669C349.826 8.89361 358.669 9.19092 363.654 10.324C371.178 12.034 373.217 21.0347 374.497 27.5787C375.319 31.7786 374.262 36.2563 374.733 40.4961C375.016 43.0392 376.82 48.9819 379.777 48.9819C386.346 48.9819 392.915 48.9819 399.484 48.9819C409.708 48.9819 413.721 54.2758 413.721 64.2565C413.721 66.601 411.698 68.1383 410.751 70.2438C408.859 74.4479 407.867 78.5287 406.508 82.8783C405.168 87.1673 406.619 91.6197 406.932 95.8428C407.267 100.368 410.042 103.165 414.145 104.989C416.536 106.051 418.85 110.376 419.85 112.626C421.999 117.462 420.51 125.169 420.51 130.446C420.51 135.99 418.045 141.888 413.202 144.495C406.129 148.304 400.484 152.716 395.052 158.45C391.117 162.603 384.647 162.427 379.777 164.861C375.15 167.175 369.841 170.872 364.314 169.293C360.896 168.316 357.617 167.004 353.896 167.831C351.959 168.262 349.439 171.073 347.531 172.027C344.516 173.535 342.008 175.269 339.234 177.119C333.442 180.98 327.545 183.749 320.848 185.982C317.013 187.26 314.209 182.035 311.042 180.702C308.64 179.69 305.154 179.393 302.556 178.816C298.832 177.988 295.348 176.177 291.572 175.421C286.446 174.396 282.007 173.626 276.721 173.724C269.186 173.864 262.635 176.462 255.931 179.617C251.549 181.679 247.344 185.033 242.731 186.453C235.157 188.783 224.117 193.804 216.849 188.15C213.378 185.451 209.594 181.362 204.968 181.362C197.897 181.362 190.825 181.362 183.754 181.362C179.713 181.362 174.615 180.517 170.601 181.409C165.553 182.53 163.568 190.356 157.447 190.696C153.561 190.912 148.187 191.586 144.719 189.659C142.742 188.561 141.175 186.843 138.779 186.5C134.368 185.87 133.163 183.89 129.444 180.984C120.911 174.318 116.066 179.177 107.192 183.059C101.388 185.598 94.6073 188.15 88.2405 188.15C85.6775 188.15 83.3444 187.526 81.0746 186.265C79.5667 185.427 79.762 181.987 79.1889 180.513C78.5032 178.75 79.5346 175.72 79.3303 173.677C79.0522 170.896 78.3965 167.533 77.6331 164.861C76.8776 162.217 65.2817 163.279 63.2543 163.73C61.4932 164.121 57.2701 164.701 56.4656 166.511C54.5631 170.792 50.2806 175.872 46.6597 178.769C40.1695 183.961 34.4453 184.092 28.415 178.816C25.9015 176.616 22.012 175.622 21.0135 172.027C19.3615 166.08 20.572 159.91 22.7106 154.207C24.4023 149.696 27.1372 145.958 29.6879 141.949C31.1226 139.695 31.336 136.722 32.2808 134.265C33.4928 131.114 31.2729 117.983 28.085 117.718C19.2469 116.981 9.38446 113.826 2.58026 108.383C0.709888 106.887 1.22411 100.637 1.30738 98.3886C1.57641 91.1248 12.8742 89.9332 16.912 85.8955C18.0579 84.7496 18.7972 83.2559 19.9763 82.0768C22.5299 79.5233 25.7402 78.3006 28.2736 75.9482C32.2753 72.2323 32.7051 70.3622 32.7051 65.1051" stroke="#EDBAFF" stroke-width="2" stroke-linecap="round"/></svg>