<svg class="Button_blue__1fT-O Button_svg__l1+vF Button_hide__Puy9O" id="Button_b2__FmVj4" width="470" height="240" viewBox="0 0 470 240" fill="none" xmlns="http://www.w3.org/2000/svg"><g filter="url(#filter0_f_9_66)"><path d="M65.191 53.4644C71.5407 53.4644 76.5664 52.7877 82.1627 55.5859C87.1919 58.1004 92.4215 59.4424 97.4373 61.9503C104.832 65.6478 110.606 61.4437 117.756 58.2259C122.701 56.0006 124.245 50.9772 128.835 48.5615C135.443 45.0834 143.491 43.2814 150.851 43.2814C155.887 43.2814 162.738 45.9232 167.682 47.3357C171.967 48.5602 178.235 50.5541 180.599 54.6901C183.147 59.149 194.836 48.5622 195.873 47.5243C201.296 42.1014 200.957 38.2557 208.649 37.2941C211.738 36.908 213.277 35.5434 214.542 39.4156C216.102 44.1875 215.014 49.2276 215.391 54.1244C215.738 58.636 235.589 48.1968 237.407 45.3557C240.55 40.4444 239.555 25.012 247.637 25.461C250.917 25.6432 255.354 29.3764 257.396 31.8726C259.197 34.0741 258.169 36.1524 258.716 38.6141C259.031 40.0304 261.276 41.1098 262.252 41.9613C266.444 45.6211 270.517 49.7797 273.755 54.313C276.033 57.5028 278.129 60.9861 279.884 64.4961C280.21 65.1485 280.434 67.2688 280.921 67.7018C282.545 69.1459 297.158 58.6338 298.93 56.0573C302.42 50.9808 301.323 48.3729 307.887 48.3729C312.331 48.3729 311.805 40.9608 318.447 42.6213C324.128 44.0416 328.956 48.6156 332.496 53.0401C333.515 54.3141 335.543 54.7474 336.739 56.0102C337.541 56.8571 338.179 58.7737 339.285 59.216C341.248 60.0011 345.575 55.3392 346.734 54.313C354.366 47.5501 360.088 39.7628 369.08 35.2669C373.826 32.8936 382.669 33.1909 387.654 34.324C395.178 36.034 397.217 45.0347 398.497 51.5787C399.319 55.7786 398.262 60.2563 398.733 64.4961C399.016 67.0392 400.82 72.9819 403.777 72.9819C410.346 72.9819 416.915 72.9819 423.484 72.9819C433.708 72.9819 437.721 78.2758 437.721 88.2565C437.721 90.601 435.698 92.1383 434.751 94.2438C432.859 98.4479 431.867 102.529 430.508 106.878C429.168 111.167 430.619 115.62 430.932 119.843C431.267 124.368 434.042 127.165 438.145 128.989C440.536 130.051 442.85 134.376 443.85 136.626C445.999 141.462 444.51 149.169 444.51 154.446C444.51 159.99 442.045 165.888 437.202 168.495C430.129 172.304 424.484 176.716 419.052 182.45C415.117 186.603 408.647 186.427 403.777 188.861C399.15 191.175 393.841 194.872 388.314 193.293C384.896 192.316 381.617 191.004 377.896 191.831C375.959 192.262 373.439 195.073 371.531 196.027C368.516 197.535 366.008 199.269 363.234 201.119C357.442 204.98 351.545 207.749 344.848 209.982C341.013 211.26 338.209 206.035 335.042 204.702C332.64 203.69 329.154 203.393 326.556 202.816C322.832 201.988 319.348 200.177 315.572 199.421C310.446 198.396 306.007 197.626 300.721 197.724C293.186 197.864 286.635 200.462 279.931 203.617C275.549 205.679 271.344 209.033 266.731 210.453C259.157 212.783 248.117 217.804 240.849 212.15C237.378 209.451 233.594 205.362 228.968 205.362C221.897 205.362 214.825 205.362 207.754 205.362C203.713 205.362 198.615 204.517 194.601 205.409C189.553 206.53 187.568 214.356 181.447 214.696C177.561 214.912 172.187 215.586 168.719 213.659C166.742 212.561 165.175 210.843 162.779 210.5C158.368 209.87 157.163 207.89 153.444 204.984C144.911 198.318 140.066 203.177 131.192 207.059C125.388 209.598 118.607 212.15 112.24 212.15C109.677 212.15 107.344 211.526 105.075 210.265C103.567 209.427 103.762 205.987 103.189 204.513C102.503 202.75 103.535 199.72 103.33 197.677C103.052 194.896 102.397 191.533 101.633 188.861C100.878 186.217 89.2817 187.279 87.2543 187.73C85.4932 188.121 81.2701 188.701 80.4656 190.511C78.5631 194.792 74.2806 199.872 70.6597 202.769C64.1695 207.961 58.4453 208.092 52.415 202.816C49.9015 200.616 46.012 199.622 45.0135 196.027C43.3615 190.08 44.572 183.91 46.7106 178.207C48.4023 173.696 51.1372 169.958 53.6879 165.949C55.1226 163.695 55.336 160.722 56.2808 158.265C57.4928 155.114 55.2729 141.983 52.085 141.718C43.2469 140.981 33.3845 137.826 26.5803 132.383C24.7099 130.887 25.2241 124.637 25.3074 122.389C25.5764 115.125 36.8742 113.933 40.912 109.895C42.0579 108.75 42.7972 107.256 43.9763 106.077C46.5299 103.523 49.7402 102.301 52.2736 99.9482C56.2753 96.2323 56.7051 94.3622 56.7051 89.1051" stroke="#9CC4FF" stroke-width="9" stroke-linecap="round"/></g><defs><filter id="filter0_f_9_66" x="0.68103" y="0.951202" width="468.832" height="238.535" filterUnits="userSpaceOnUse" color-interpolation-filters="sRGB"><feFlood flood-opacity="0" result="BackgroundImageFix"/><feBlend mode="normal" in="SourceGraphic" in2="BackgroundImageFix" result="shape"/><feGaussianBlur stdDeviation="10" result="effect1_foregroundBlur_9_66"/></filter></defs></svg>