<svg id="Button_y2__+hd+U" class="Button_yellow__x+FRH Button_svg__l1+vF undefined Button_hide__Puy9O" width="461" height="227" viewBox="0 0 461 227" fill="none" xmlns="http://www.w3.org/2000/svg"><g filter="url(#filter0_f_9_65)"><path d="M50.2509 53.3446C57.4233 53.3446 60.3438 48.435 66.3741 45.8959C70.3062 44.2403 75.2153 50.6639 77.83 48.6303C79.9648 46.9698 81.295 44.7324 83.8173 43.5859C86.459 42.3851 89.1655 42.7541 91.8317 41.0401C94.5298 39.3056 95.3864 38.9187 98.6204 38.9187C101.859 38.9187 102.692 35.6752 105.409 35.5243C108.384 35.359 115.357 34.0685 115.592 38.0701C115.764 40.9956 124.291 33.585 125.304 33.8743C129.778 35.1527 129.809 38.9187 135.11 38.9187C136.757 38.9187 139.514 38.711 140.39 37.2215C141.771 34.8735 144.049 33.7436 145.764 35.9486C146.841 37.333 149.016 42.2187 150.856 42.2187C153.8 42.2187 161.052 40.8915 163.066 38.5415C164.24 37.1714 165.391 34.7347 166.979 33.8271C170.072 32.0595 178.518 30.6863 181.782 32.3185C186.215 34.535 185.473 39.9003 191.305 37.8815C193.735 37.0403 195.344 36.4197 197.245 34.8643C199.398 33.1025 203.448 33.2496 205.967 32.1299C210.409 30.1557 217.614 28.5615 221.241 33.0257C222.539 34.6227 224.342 40.9748 226.333 41.4173C230.202 42.277 233.65 39.8454 236.28 37.4101C238.31 35.531 240.801 34.2096 242.88 32.1299C245.093 29.9174 246.404 27.887 249.669 27.887C256.632 27.887 262.504 31.0108 267.018 35.5243C272.239 40.7455 280.919 42.1044 287.667 44.1988C290.318 45.0216 290.605 43.9462 293.136 42.973C296.084 41.8389 299.253 38.6813 301.433 36.3729C304.053 33.5986 305.971 33.8271 309.919 33.8271C312.114 33.8271 314.325 33.7488 316.519 33.8271C318.248 33.8889 319.621 35.43 321.28 35.43C321.946 35.43 323.935 31.2198 324.533 30.6213C326.486 28.6685 329.398 26.7335 332.029 25.8127C338.686 23.4827 346.507 24.6189 349.142 31.4699C350.751 35.653 352.489 40.0584 357.44 39.7672C358.775 39.6887 359.094 35.8361 360.174 34.8643C361.455 33.7111 365.417 34.8095 366.303 35.9486C367.524 37.5193 367.426 41.1374 368.896 42.313C371.421 44.3335 374.198 40.7283 376.109 38.9187C379.378 35.8208 385.423 37.8331 387.989 41.0401C388.87 42.1419 391.347 43.4283 392.656 44.0102C394.46 44.8119 393.534 46.791 394.306 48.2531C395.498 50.512 398.893 52.5686 401.095 53.7218C405.872 56.2244 409.659 55.8904 415.144 55.8904C416.463 55.8904 420.165 55.1732 420.235 56.9276C420.351 59.8282 420.599 63.1991 420.188 66.0735C419.801 68.7854 417.689 70.6716 417.689 73.7107C417.689 76.5394 417.689 79.368 417.689 82.1966C417.689 88.7982 427.284 90.983 431.455 94.7369C434.926 97.8608 436.358 100.62 436.358 105.58C436.358 112.009 435.072 117.179 432.115 122.929C430.279 126.499 427.859 133.16 424.148 134.809C421.231 136.106 423.399 142.131 423.582 144.144C423.962 148.325 423.629 152.672 423.629 156.872C423.629 161.772 419.335 166.468 415.144 168.564C411.874 170.199 406.667 168.169 403.075 169.413C397.032 171.504 391.264 180.965 388.46 186.573C386.056 191.382 383.941 193.513 378.183 192.466C375.96 192.062 374.457 190.496 372.29 190.014C370.045 189.516 367.363 190.088 365.077 189.967C363.027 189.859 361.269 188.27 359.137 188.27C355.535 188.27 352.396 190.9 348.954 191.664C341.538 193.312 334.971 193.362 327.362 193.362C322.213 193.362 316.637 192.875 312.276 189.967C310.217 188.595 308.094 186.106 305.676 188.27C301.216 192.261 293.451 197.605 287.431 197.605C282.712 197.605 278.33 197.531 273.807 196.709C270.112 196.037 268.209 193.362 264.472 193.362C257.558 193.362 250.643 193.362 243.729 193.362C237.455 193.362 233.739 198.453 227.606 198.453C222.332 198.453 220.686 193.481 214.83 195.53C211.87 196.566 204.58 197.756 202.997 200.527C201.388 203.342 195.259 201.524 193.002 200.622C190.101 199.461 187.495 195.907 184.328 195.907C179.842 195.907 176.255 196.373 172.023 198.029C164.002 201.167 157.238 202.667 150.856 196.285C149.61 195.039 148.884 194.229 147.367 193.362C144.822 191.908 142.685 191.673 140.201 190.627C131.202 186.838 121.505 193.41 113.895 197.416C110.202 199.36 101.416 201.52 98.1961 197.557C96.7277 195.75 95.6403 192.181 93.0574 191.712C90.5016 191.247 87.1344 189.967 84.6187 189.967C82.4853 189.967 81.4768 188.473 80.3286 186.997C77.7378 183.666 73.8537 181.697 69.957 180.444C65.2454 178.93 58.11 177.238 53.221 177.238C47.4007 177.238 48.6318 165.534 47.0451 161.964C46.2967 160.28 45.5901 157.547 44.1222 156.212C41.9533 154.241 36.8629 152.64 34.1277 151.121C31.9968 149.937 31.514 147.566 29.8848 145.841C28.3733 144.24 24.7933 142.798 24.7933 140.325C24.7933 137.611 26.1411 136.41 27.7162 134.385C29.5075 132.082 29.3319 128.071 28.8476 125.286C27.9086 119.887 26.4904 114.18 26.4904 108.88C26.4904 101.932 37.5221 103.175 37.5221 98.7441C37.5221 94.0549 35.8249 90.1013 35.8249 85.591C35.8249 81.2022 38.2941 78.4647 40.5393 74.9365C41.6967 73.1176 46.008 69.1694 46.008 67.3463C46.008 65.2249 46.008 63.1034 46.008 60.9819" stroke="#FFAB5E" stroke-width="11" stroke-linecap="round"/></g><defs><filter id="filter0_f_9_65" x="0.293274" y="0.211567" width="460.565" height="226.325" filterUnits="userSpaceOnUse" color-interpolation-filters="sRGB"><feFlood flood-opacity="0" result="BackgroundImageFix"/><feBlend mode="normal" in="SourceGraphic" in2="BackgroundImageFix" result="shape"/><feGaussianBlur stdDeviation="9.5" result="effect1_foregroundBlur_9_65"/></filter></defs></svg>